<svg width="449" height="363" viewBox="0 0 449 363" fill="none" xmlns="http://www.w3.org/2000/svg">
<path d="M0 51H449V353C449 358.523 444.523 363 439 363H9.99999C4.47714 363 0 358.523 0 353V51Z" fill="#93827A"/>
<rect x="31" width="94" height="43" rx="5" fill="#362317"/>
<path d="M0 31C0 25.4772 4.47715 21 10 21H439C444.523 21 449 25.4772 449 31V48H0V31Z" fill="#362317"/>
<line x1="0.000137603" y1="49.5" x2="449" y2="49.5412" stroke="white" stroke-width="3"/>
<line x1="428.5" y1="47.9952" x2="429.5" y2="362.995" stroke="#362317" stroke-width="3"/>
<path d="M196.636 207.352C194.947 207.352 193.492 206.97 192.273 206.205C191.061 205.432 190.129 204.367 189.477 203.011C188.826 201.655 188.5 200.102 188.5 198.352C188.5 196.58 188.833 195.015 189.5 193.659C190.167 192.295 191.106 191.231 192.318 190.466C193.53 189.701 194.958 189.318 196.602 189.318C197.928 189.318 199.11 189.564 200.148 190.057C201.186 190.542 202.023 191.223 202.659 192.102C203.303 192.981 203.686 194.008 203.807 195.182H200.5C200.318 194.364 199.902 193.659 199.25 193.068C198.606 192.477 197.742 192.182 196.659 192.182C195.712 192.182 194.883 192.432 194.17 192.932C193.466 193.424 192.917 194.129 192.523 195.045C192.129 195.955 191.932 197.03 191.932 198.273C191.932 199.545 192.125 200.644 192.511 201.568C192.898 202.492 193.443 203.208 194.148 203.716C194.86 204.223 195.697 204.477 196.659 204.477C197.303 204.477 197.886 204.36 198.409 204.125C198.939 203.883 199.383 203.538 199.739 203.091C200.102 202.644 200.356 202.106 200.5 201.477H203.807C203.686 202.606 203.318 203.614 202.705 204.5C202.091 205.386 201.269 206.083 200.239 206.591C199.216 207.098 198.015 207.352 196.636 207.352ZM214.793 207.352C213.156 207.352 211.728 206.977 210.509 206.227C209.289 205.477 208.342 204.428 207.668 203.08C206.993 201.731 206.656 200.155 206.656 198.352C206.656 196.542 206.993 194.958 207.668 193.602C208.342 192.246 209.289 191.193 210.509 190.443C211.728 189.693 213.156 189.318 214.793 189.318C216.429 189.318 217.857 189.693 219.077 190.443C220.296 191.193 221.243 192.246 221.918 193.602C222.592 194.958 222.929 196.542 222.929 198.352C222.929 200.155 222.592 201.731 221.918 203.08C221.243 204.428 220.296 205.477 219.077 206.227C217.857 206.977 216.429 207.352 214.793 207.352ZM214.804 204.5C215.865 204.5 216.743 204.22 217.44 203.659C218.137 203.098 218.652 202.352 218.986 201.42C219.327 200.489 219.497 199.462 219.497 198.341C219.497 197.227 219.327 196.205 218.986 195.273C218.652 194.333 218.137 193.58 217.44 193.011C216.743 192.443 215.865 192.159 214.804 192.159C213.736 192.159 212.849 192.443 212.145 193.011C211.448 193.58 210.929 194.333 210.588 195.273C210.255 196.205 210.088 197.227 210.088 198.341C210.088 199.462 210.255 200.489 210.588 201.42C210.929 202.352 211.448 203.098 212.145 203.659C212.849 204.22 213.736 204.5 214.804 204.5ZM233.256 207.341C231.847 207.341 230.589 206.981 229.483 206.261C228.384 205.534 227.521 204.5 226.892 203.159C226.271 201.811 225.96 200.193 225.96 198.307C225.96 196.42 226.275 194.807 226.903 193.466C227.54 192.125 228.411 191.098 229.517 190.386C230.623 189.674 231.877 189.318 233.278 189.318C234.362 189.318 235.233 189.5 235.892 189.864C236.559 190.22 237.074 190.636 237.438 191.114C237.809 191.591 238.097 192.011 238.301 192.375H238.506V183.727H241.903V207H238.585V204.284H238.301C238.097 204.655 237.801 205.08 237.415 205.557C237.036 206.034 236.513 206.451 235.847 206.807C235.18 207.163 234.316 207.341 233.256 207.341ZM234.006 204.443C234.983 204.443 235.809 204.186 236.483 203.67C237.165 203.148 237.68 202.424 238.028 201.5C238.384 200.576 238.562 199.5 238.562 198.273C238.562 197.061 238.388 196 238.04 195.091C237.691 194.182 237.18 193.473 236.506 192.966C235.831 192.458 234.998 192.205 234.006 192.205C232.983 192.205 232.131 192.47 231.449 193C230.767 193.53 230.252 194.254 229.903 195.17C229.563 196.087 229.392 197.121 229.392 198.273C229.392 199.439 229.566 200.489 229.915 201.42C230.263 202.352 230.778 203.091 231.46 203.636C232.15 204.174 232.998 204.443 234.006 204.443ZM254.276 207.352C252.556 207.352 251.075 206.985 249.832 206.25C248.598 205.508 247.643 204.466 246.969 203.125C246.302 201.777 245.969 200.197 245.969 198.386C245.969 196.598 246.302 195.023 246.969 193.659C247.643 192.295 248.582 191.231 249.787 190.466C250.999 189.701 252.416 189.318 254.037 189.318C255.022 189.318 255.976 189.481 256.901 189.807C257.825 190.133 258.654 190.644 259.389 191.341C260.124 192.038 260.704 192.943 261.128 194.057C261.552 195.163 261.764 196.508 261.764 198.091V199.295H247.889V196.75H258.435C258.435 195.856 258.253 195.064 257.889 194.375C257.526 193.678 257.014 193.129 256.355 192.727C255.704 192.326 254.938 192.125 254.06 192.125C253.105 192.125 252.272 192.36 251.56 192.83C250.855 193.292 250.31 193.898 249.923 194.648C249.545 195.39 249.355 196.197 249.355 197.068V199.057C249.355 200.223 249.56 201.216 249.969 202.034C250.385 202.852 250.965 203.477 251.707 203.909C252.45 204.333 253.317 204.545 254.31 204.545C254.954 204.545 255.541 204.455 256.071 204.273C256.601 204.083 257.06 203.803 257.446 203.432C257.832 203.061 258.128 202.602 258.332 202.057L261.548 202.636C261.291 203.583 260.829 204.413 260.162 205.125C259.503 205.83 258.673 206.379 257.673 206.773C256.681 207.159 255.548 207.352 254.276 207.352Z" fill="#FBEEDE"/>
</svg>
