<svg width="449" height="363" viewBox="0 0 449 363" fill="none" xmlns="http://www.w3.org/2000/svg">
<path d="M0 51H449V353C449 358.523 444.523 363 439 363H9.99999C4.47714 363 0 358.523 0 353V51Z" fill="#93827A"/>
<rect x="31" width="94" height="43" rx="5" fill="#362317"/>
<path d="M0 31C0 25.4772 4.47715 21 10 21H439C444.523 21 449 25.4772 449 31V48H0V31Z" fill="#362317"/>
<line x1="0.000137603" y1="49.5" x2="449" y2="49.5412" stroke="white" stroke-width="3"/>
<line x1="428.5" y1="47.9952" x2="429.5" y2="362.995" stroke="#362317" stroke-width="3"/>
<path d="M181.682 196.636V207H178.284V183.727H181.636V192.386H181.852C182.261 191.447 182.886 190.701 183.727 190.148C184.568 189.595 185.667 189.318 187.023 189.318C188.22 189.318 189.265 189.564 190.159 190.057C191.061 190.549 191.758 191.284 192.25 192.261C192.75 193.231 193 194.443 193 195.898V207H189.602V196.307C189.602 195.027 189.273 194.034 188.614 193.33C187.955 192.617 187.038 192.261 185.864 192.261C185.061 192.261 184.341 192.432 183.705 192.773C183.076 193.114 182.58 193.614 182.216 194.273C181.86 194.924 181.682 195.712 181.682 196.636ZM204.886 207.352C203.25 207.352 201.822 206.977 200.602 206.227C199.383 205.477 198.436 204.428 197.761 203.08C197.087 201.731 196.75 200.155 196.75 198.352C196.75 196.542 197.087 194.958 197.761 193.602C198.436 192.246 199.383 191.193 200.602 190.443C201.822 189.693 203.25 189.318 204.886 189.318C206.523 189.318 207.951 189.693 209.17 190.443C210.39 191.193 211.337 192.246 212.011 193.602C212.686 194.958 213.023 196.542 213.023 198.352C213.023 200.155 212.686 201.731 212.011 203.08C211.337 204.428 210.39 205.477 209.17 206.227C207.951 206.977 206.523 207.352 204.886 207.352ZM204.898 204.5C205.958 204.5 206.837 204.22 207.534 203.659C208.231 203.098 208.746 202.352 209.08 201.42C209.42 200.489 209.591 199.462 209.591 198.341C209.591 197.227 209.42 196.205 209.08 195.273C208.746 194.333 208.231 193.58 207.534 193.011C206.837 192.443 205.958 192.159 204.898 192.159C203.83 192.159 202.943 192.443 202.239 193.011C201.542 193.58 201.023 194.333 200.682 195.273C200.348 196.205 200.182 197.227 200.182 198.341C200.182 199.462 200.348 200.489 200.682 201.42C201.023 202.352 201.542 203.098 202.239 203.659C202.943 204.22 203.83 204.5 204.898 204.5ZM217.088 207V183.727H220.486V192.375H220.69C220.887 192.011 221.171 191.591 221.543 191.114C221.914 190.636 222.429 190.22 223.088 189.864C223.747 189.5 224.618 189.318 225.702 189.318C227.111 189.318 228.368 189.674 229.474 190.386C230.58 191.098 231.448 192.125 232.077 193.466C232.713 194.807 233.031 196.42 233.031 198.307C233.031 200.193 232.717 201.811 232.088 203.159C231.459 204.5 230.596 205.534 229.497 206.261C228.399 206.981 227.145 207.341 225.736 207.341C224.675 207.341 223.808 207.163 223.134 206.807C222.467 206.451 221.944 206.034 221.565 205.557C221.187 205.08 220.895 204.655 220.69 204.284H220.406V207H217.088ZM220.418 198.273C220.418 199.5 220.596 200.576 220.952 201.5C221.308 202.424 221.823 203.148 222.497 203.67C223.171 204.186 223.997 204.443 224.974 204.443C225.99 204.443 226.838 204.174 227.52 203.636C228.202 203.091 228.717 202.352 229.065 201.42C229.421 200.489 229.599 199.439 229.599 198.273C229.599 197.121 229.425 196.087 229.077 195.17C228.736 194.254 228.221 193.53 227.531 193C226.849 192.47 225.997 192.205 224.974 192.205C223.99 192.205 223.156 192.458 222.474 192.966C221.8 193.473 221.289 194.182 220.94 195.091C220.592 196 220.418 197.061 220.418 198.273ZM237.119 207V183.727H240.517V192.375H240.722C240.919 192.011 241.203 191.591 241.574 191.114C241.945 190.636 242.46 190.22 243.119 189.864C243.778 189.5 244.65 189.318 245.733 189.318C247.142 189.318 248.4 189.674 249.506 190.386C250.612 191.098 251.479 192.125 252.108 193.466C252.744 194.807 253.062 196.42 253.062 198.307C253.062 200.193 252.748 201.811 252.119 203.159C251.491 204.5 250.627 205.534 249.528 206.261C248.43 206.981 247.176 207.341 245.767 207.341C244.706 207.341 243.839 207.163 243.165 206.807C242.498 206.451 241.975 206.034 241.597 205.557C241.218 205.08 240.926 204.655 240.722 204.284H240.438V207H237.119ZM240.449 198.273C240.449 199.5 240.627 200.576 240.983 201.5C241.339 202.424 241.854 203.148 242.528 203.67C243.203 204.186 244.028 204.443 245.006 204.443C246.021 204.443 246.869 204.174 247.551 203.636C248.233 203.091 248.748 202.352 249.097 201.42C249.453 200.489 249.631 199.439 249.631 198.273C249.631 197.121 249.456 196.087 249.108 195.17C248.767 194.254 248.252 193.53 247.562 193C246.881 192.47 246.028 192.205 245.006 192.205C244.021 192.205 243.188 192.458 242.506 192.966C241.831 193.473 241.32 194.182 240.972 195.091C240.623 196 240.449 197.061 240.449 198.273ZM258.432 213.545C257.924 213.545 257.462 213.504 257.045 213.42C256.629 213.345 256.318 213.261 256.114 213.17L256.932 210.386C257.553 210.553 258.106 210.625 258.591 210.602C259.076 210.58 259.504 210.398 259.875 210.057C260.254 209.716 260.587 209.159 260.875 208.386L261.295 207.227L254.909 189.545H258.545L262.966 203.091H263.148L267.568 189.545H271.216L264.023 209.33C263.689 210.239 263.265 211.008 262.75 211.636C262.235 212.273 261.621 212.75 260.909 213.068C260.197 213.386 259.371 213.545 258.432 213.545Z" fill="#FBEEDE"/>
</svg>
