<svg xmlns="http://www.w3.org/2000/svg" viewBox="0 0 41.67 41.67"><defs><style>.cls-1{fill:none;stroke:#000;stroke-linecap:round;stroke-linejoin:round;stroke-width:2px;}</style></defs><title>Asset 19</title><g id="Layer_2" data-name="Layer 2"><g id="Layer_2-2" data-name="Layer 2"><path class="cls-1" d="M6.85,3.89h9.81a2,2,0,0,1,2,2v6a0,0,0,0,1,0,0H4.84a0,0,0,0,1,0,0v-6a2,2,0,0,1,2-2Z" transform="translate(9.03 -6) rotate(45)" id="id_108" style="stroke: rgb(241, 219, 192);"></path><path class="cls-1" d="M4,5.83S-6.07,14.4,10.6,31.07" id="id_109" style="stroke: rgb(241, 219, 192);"></path><path class="cls-1" d="M13.82,15.62S8.73,19,15.68,26" id="id_110" style="stroke: rgb(241, 219, 192);"></path><path class="cls-1" d="M26.85,25.9H40.7a0,0,0,0,1,0,0v6a2,2,0,0,1-2,2H28.87a2,2,0,0,1-2-2v-6a0,0,0,0,1,0,0Z" transform="translate(36.51 74.93) rotate(-135)" id="id_111" style="stroke: rgb(241, 219, 192);"></path><path class="cls-1" d="M35.83,37.63s-8.56,10.1-25.23-6.56" id="id_112" style="stroke: rgb(241, 219, 192);"></path><path class="cls-1" d="M26,27.84S22.62,32.94,15.68,26" id="id_113" style="stroke: rgb(241, 219, 192);"></path></g></g></svg>