<svg width="449" height="363" viewBox="0 0 449 363" fill="none" xmlns="http://www.w3.org/2000/svg">
<path d="M0 51H449V353C449 358.523 444.523 363 439 363H9.99999C4.47714 363 0 358.523 0 353V51Z" fill="#93827A"/>
<rect x="31" width="94" height="43" rx="5" fill="#362317"/>
<path d="M0 31C0 25.4772 4.47715 21 10 21H439C444.523 21 449 25.4772 449 31V48H0V31Z" fill="#362317"/>
<line x1="0.000137603" y1="49.5" x2="449" y2="49.5412" stroke="white" stroke-width="3"/>
<line x1="428.5" y1="47.9952" x2="429.5" y2="362.995" stroke="#362317" stroke-width="3"/>
<path d="M168.284 213.545V189.545H171.602V192.375H171.886C172.083 192.011 172.367 191.591 172.739 191.114C173.11 190.636 173.625 190.22 174.284 189.864C174.943 189.5 175.814 189.318 176.898 189.318C178.307 189.318 179.564 189.674 180.67 190.386C181.777 191.098 182.644 192.125 183.273 193.466C183.909 194.807 184.227 196.42 184.227 198.307C184.227 200.193 183.913 201.811 183.284 203.159C182.655 204.5 181.792 205.534 180.693 206.261C179.595 206.981 178.341 207.341 176.932 207.341C175.871 207.341 175.004 207.163 174.33 206.807C173.663 206.451 173.14 206.034 172.761 205.557C172.383 205.08 172.091 204.655 171.886 204.284H171.682V213.545H168.284ZM171.614 198.273C171.614 199.5 171.792 200.576 172.148 201.5C172.504 202.424 173.019 203.148 173.693 203.67C174.367 204.186 175.193 204.443 176.17 204.443C177.186 204.443 178.034 204.174 178.716 203.636C179.398 203.091 179.913 202.352 180.261 201.42C180.617 200.489 180.795 199.439 180.795 198.273C180.795 197.121 180.621 196.087 180.273 195.17C179.932 194.254 179.417 193.53 178.727 193C178.045 192.47 177.193 192.205 176.17 192.205C175.186 192.205 174.352 192.458 173.67 192.966C172.996 193.473 172.485 194.182 172.136 195.091C171.788 196 171.614 197.061 171.614 198.273ZM191.432 196.636V207H188.034V183.727H191.386V192.386H191.602C192.011 191.447 192.636 190.701 193.477 190.148C194.318 189.595 195.417 189.318 196.773 189.318C197.97 189.318 199.015 189.564 199.909 190.057C200.811 190.549 201.508 191.284 202 192.261C202.5 193.231 202.75 194.443 202.75 195.898V207H199.352V196.307C199.352 195.027 199.023 194.034 198.364 193.33C197.705 192.617 196.788 192.261 195.614 192.261C194.811 192.261 194.091 192.432 193.455 192.773C192.826 193.114 192.33 193.614 191.966 194.273C191.61 194.924 191.432 195.712 191.432 196.636ZM208.807 213.545C208.299 213.545 207.837 213.504 207.42 213.42C207.004 213.345 206.693 213.261 206.489 213.17L207.307 210.386C207.928 210.553 208.481 210.625 208.966 210.602C209.451 210.58 209.879 210.398 210.25 210.057C210.629 209.716 210.962 209.159 211.25 208.386L211.67 207.227L205.284 189.545H208.92L213.341 203.091H213.523L217.943 189.545H221.591L214.398 209.33C214.064 210.239 213.64 211.008 213.125 211.636C212.61 212.273 211.996 212.75 211.284 213.068C210.572 213.386 209.746 213.545 208.807 213.545ZM237.864 193.807L234.784 194.352C234.655 193.958 234.451 193.583 234.17 193.227C233.898 192.871 233.527 192.58 233.057 192.352C232.587 192.125 232 192.011 231.295 192.011C230.333 192.011 229.53 192.227 228.886 192.659C228.242 193.083 227.92 193.633 227.92 194.307C227.92 194.89 228.136 195.36 228.568 195.716C229 196.072 229.697 196.364 230.659 196.591L233.432 197.227C235.038 197.598 236.235 198.17 237.023 198.943C237.811 199.716 238.205 200.72 238.205 201.955C238.205 203 237.902 203.932 237.295 204.75C236.697 205.561 235.86 206.197 234.784 206.659C233.716 207.121 232.477 207.352 231.068 207.352C229.114 207.352 227.519 206.936 226.284 206.102C225.049 205.261 224.292 204.068 224.011 202.523L227.295 202.023C227.5 202.879 227.92 203.527 228.557 203.966C229.193 204.398 230.023 204.614 231.045 204.614C232.159 204.614 233.049 204.383 233.716 203.92C234.383 203.451 234.716 202.879 234.716 202.205C234.716 201.659 234.511 201.201 234.102 200.83C233.701 200.458 233.083 200.178 232.25 199.989L229.295 199.341C227.667 198.97 226.462 198.379 225.682 197.568C224.909 196.758 224.523 195.731 224.523 194.489C224.523 193.458 224.811 192.557 225.386 191.784C225.962 191.011 226.758 190.409 227.773 189.977C228.788 189.538 229.951 189.318 231.261 189.318C233.148 189.318 234.633 189.727 235.716 190.545C236.799 191.356 237.515 192.443 237.864 193.807ZM241.94 207V189.545H245.338V207H241.94ZM243.656 186.852C243.065 186.852 242.558 186.655 242.134 186.261C241.717 185.86 241.509 185.383 241.509 184.83C241.509 184.269 241.717 183.792 242.134 183.398C242.558 182.996 243.065 182.795 243.656 182.795C244.247 182.795 244.751 182.996 245.168 183.398C245.592 183.792 245.804 184.269 245.804 184.83C245.804 185.383 245.592 185.86 245.168 186.261C244.751 186.655 244.247 186.852 243.656 186.852ZM257.261 207.352C255.572 207.352 254.117 206.97 252.898 206.205C251.686 205.432 250.754 204.367 250.102 203.011C249.451 201.655 249.125 200.102 249.125 198.352C249.125 196.58 249.458 195.015 250.125 193.659C250.792 192.295 251.731 191.231 252.943 190.466C254.155 189.701 255.583 189.318 257.227 189.318C258.553 189.318 259.735 189.564 260.773 190.057C261.811 190.542 262.648 191.223 263.284 192.102C263.928 192.981 264.311 194.008 264.432 195.182H261.125C260.943 194.364 260.527 193.659 259.875 193.068C259.231 192.477 258.367 192.182 257.284 192.182C256.337 192.182 255.508 192.432 254.795 192.932C254.091 193.424 253.542 194.129 253.148 195.045C252.754 195.955 252.557 197.03 252.557 198.273C252.557 199.545 252.75 200.644 253.136 201.568C253.523 202.492 254.068 203.208 254.773 203.716C255.485 204.223 256.322 204.477 257.284 204.477C257.928 204.477 258.511 204.36 259.034 204.125C259.564 203.883 260.008 203.538 260.364 203.091C260.727 202.644 260.981 202.106 261.125 201.477H264.432C264.311 202.606 263.943 203.614 263.33 204.5C262.716 205.386 261.894 206.083 260.864 206.591C259.841 207.098 258.64 207.352 257.261 207.352ZM281.145 193.807L278.065 194.352C277.937 193.958 277.732 193.583 277.452 193.227C277.179 192.871 276.808 192.58 276.338 192.352C275.868 192.125 275.281 192.011 274.577 192.011C273.615 192.011 272.812 192.227 272.168 192.659C271.524 193.083 271.202 193.633 271.202 194.307C271.202 194.89 271.418 195.36 271.849 195.716C272.281 196.072 272.978 196.364 273.94 196.591L276.713 197.227C278.319 197.598 279.516 198.17 280.304 198.943C281.092 199.716 281.486 200.72 281.486 201.955C281.486 203 281.183 203.932 280.577 204.75C279.978 205.561 279.141 206.197 278.065 206.659C276.997 207.121 275.759 207.352 274.349 207.352C272.395 207.352 270.8 206.936 269.565 206.102C268.33 205.261 267.573 204.068 267.293 202.523L270.577 202.023C270.781 202.879 271.202 203.527 271.838 203.966C272.474 204.398 273.304 204.614 274.327 204.614C275.44 204.614 276.33 204.383 276.997 203.92C277.664 203.451 277.997 202.879 277.997 202.205C277.997 201.659 277.793 201.201 277.384 200.83C276.982 200.458 276.365 200.178 275.531 199.989L272.577 199.341C270.948 198.97 269.743 198.379 268.963 197.568C268.19 196.758 267.804 195.731 267.804 194.489C267.804 193.458 268.092 192.557 268.668 191.784C269.243 191.011 270.039 190.409 271.054 189.977C272.069 189.538 273.232 189.318 274.543 189.318C276.429 189.318 277.914 189.727 278.997 190.545C280.08 191.356 280.796 192.443 281.145 193.807Z" fill="#FBEEDE"/>
</svg>
