<svg width="108" height="85" viewBox="0 0 108 85" fill="none" xmlns="http://www.w3.org/2000/svg">
<path d="M0 9H98C103.523 9 108 13.4772 108 19V75C108 80.5229 103.523 85 98 85H10C4.47715 85 0 80.5229 0 75V9Z" fill="#362317"/>
<path d="M37.9874 0L55.3314 13.8353L31 21.0573L37.9874 0Z" fill="#362317"/>
<path d="M0 10C0 4.47715 4.47715 0 10 0H38V28H0V10Z" fill="#362317"/>
<path d="M4 14C4 12.3431 5.34315 11 7 11H101C102.657 11 104 12.3431 104 14V25H4V14Z" fill="#F1DBC0"/>
<path d="M4 17C4 15.3431 5.34315 14 7 14H101C102.657 14 104 15.3431 104 17V28H4V17Z" fill="white"/>
<path d="M0 22C0 18.6863 2.68629 16 6 16H102C105.314 16 108 18.6863 108 22V79C108 82.3137 105.314 85 102 85H6C2.68629 85 0 82.3137 0 79V22Z" fill="#93827A"/>
<line x1="62" y1="57.5" x2="106" y2="57.5" stroke="#F1DBC0"/>
<line x1="62" y1="63.5" x2="106" y2="63.5" stroke="#F1DBC0"/>
<line x1="62" y1="69.5" x2="106" y2="69.5" stroke="#F1DBC0"/>
</svg>
