<svg width="60" height="65" viewBox="0 0 60 65" fill="none" xmlns="http://www.w3.org/2000/svg">
<rect width="60" height="60" rx="10" fill="#93827A"/>
<ellipse cx="30" cy="29.5" rx="19" ry="14.5" fill="white"/>
<path d="M12.6052 14.2157C12.5482 13.8351 12.9246 13.5355 13.2828 13.6764L22.9531 17.4823C23.3113 17.6232 23.3826 18.0991 23.0814 18.3388L14.9502 24.8106C14.6491 25.0503 14.2014 24.8741 14.1444 24.4934L12.6052 14.2157Z" fill="white"/>
<path d="M46.7968 13.9924C47.1639 13.8769 47.5184 14.2022 47.4349 14.5779L45.1788 24.7224C45.0952 25.0981 44.6363 25.2425 44.3527 24.9823L36.6954 17.9562C36.4118 17.696 36.5162 17.2264 36.8834 17.1109L46.7968 13.9924Z" fill="white"/>
<path d="M23 48C23 44.134 26.134 41 30 41C33.866 41 37 44.134 37 48V60H23V48Z" fill="white"/>
<mask id="path-6-outside-1_26_11" maskUnits="userSpaceOnUse" x="7.9985" y="44.8003" width="21.0551" height="11.2664" fill="black">
<rect fill="white" x="7.9985" y="44.8003" width="21.0551" height="11.2664"/>
<path d="M17.8779 50.7576C17.4704 50.1452 17.0522 49.6397 16.6233 49.2412C16.2074 48.8456 15.642 48.5664 14.9269 48.4036C14.1599 48.2289 13.3966 48.308 12.637 48.641C11.8934 48.964 11.2328 49.463 10.6551 50.1383L9.43929 49.0819C10.3049 48.1031 11.2384 47.4268 12.2397 47.0531C13.257 46.6695 14.2791 46.5946 15.3062 46.8285C16.1902 47.0298 16.9288 47.3894 17.5219 47.9074C18.131 48.4153 18.6965 49.0843 19.2186 49.9143C19.6261 50.5267 20.0443 51.0322 20.4732 51.4307C20.9021 51.8292 21.4675 52.1084 22.1696 52.2683C22.9366 52.443 23.6919 52.3689 24.4355 52.0459C25.1951 51.713 25.8637 51.2089 26.4414 50.5336L27.6572 51.59C26.7916 52.5688 25.8501 53.2501 24.8328 53.6338C23.8315 54.0075 22.8174 54.0773 21.7903 53.8434C20.9193 53.6451 20.1792 53.2919 19.5702 52.784C18.964 52.2631 18.3999 51.5876 17.8779 50.7576Z"/>
</mask>
<path d="M17.8779 50.7576C17.4704 50.1452 17.0522 49.6397 16.6233 49.2412C16.2074 48.8456 15.642 48.5664 14.9269 48.4036C14.1599 48.2289 13.3966 48.308 12.637 48.641C11.8934 48.964 11.2328 49.463 10.6551 50.1383L9.43929 49.0819C10.3049 48.1031 11.2384 47.4268 12.2397 47.0531C13.257 46.6695 14.2791 46.5946 15.3062 46.8285C16.1902 47.0298 16.9288 47.3894 17.5219 47.9074C18.131 48.4153 18.6965 49.0843 19.2186 49.9143C19.6261 50.5267 20.0443 51.0322 20.4732 51.4307C20.9021 51.8292 21.4675 52.1084 22.1696 52.2683C22.9366 52.443 23.6919 52.3689 24.4355 52.0459C25.1951 51.713 25.8637 51.2089 26.4414 50.5336L27.6572 51.59C26.7916 52.5688 25.8501 53.2501 24.8328 53.6338C23.8315 54.0075 22.8174 54.0773 21.7903 53.8434C20.9193 53.6451 20.1792 53.2919 19.5702 52.784C18.964 52.2631 18.3999 51.5876 17.8779 50.7576Z" fill="white"/>
<path d="M17.8779 50.7576L18.3012 50.4913L18.2941 50.4806L17.8779 50.7576ZM16.6233 49.2412L16.2787 49.6035L16.2829 49.6074L16.6233 49.2412ZM12.637 48.641L12.8362 49.0996L12.8378 49.0989L12.637 48.641ZM10.6551 50.1383L10.3271 50.5157L10.7075 50.8462L11.035 50.4633L10.6551 50.1383ZM9.43929 49.0819L9.06473 48.7507L8.7306 49.1286L9.11135 49.4594L9.43929 49.0819ZM12.2397 47.0531L12.4145 47.5216L12.4162 47.521L12.2397 47.0531ZM17.5219 47.9074L17.1929 48.2841L17.2017 48.2914L17.5219 47.9074ZM19.2186 49.9143L18.7952 50.1806L18.8023 50.1913L19.2186 49.9143ZM20.4732 51.4307L20.1328 51.797L20.4732 51.4307ZM24.4355 52.0459L24.6347 52.5046L24.6363 52.5039L24.4355 52.0459ZM26.4414 50.5336L26.7693 50.1562L26.389 49.8257L26.0615 50.2086L26.4414 50.5336ZM27.6572 51.59L28.0318 51.9212L28.3659 51.5433L27.9851 51.2125L27.6572 51.59ZM24.8328 53.6338L25.0076 54.1023L25.0093 54.1016L24.8328 53.6338ZM19.5702 52.784L19.2442 53.1632L19.2499 53.168L19.5702 52.784ZM17.8779 50.7576L18.2941 50.4806C17.8702 49.8435 17.4275 49.3059 16.9636 48.8749L16.6233 49.2412L16.2829 49.6074C16.6769 49.9735 17.0705 50.4469 17.4616 51.0346L17.8779 50.7576ZM16.6233 49.2412L16.9679 48.8789C16.4711 48.4063 15.8167 48.0934 15.038 47.9161L14.9269 48.4036L14.8159 48.8911C15.4672 49.0394 15.9437 49.2849 16.2787 49.6035L16.6233 49.2412ZM14.9269 48.4036L15.038 47.9161C14.1606 47.7162 13.2883 47.8096 12.4363 48.1831L12.637 48.641L12.8378 49.0989C13.5049 48.8065 14.1592 48.7415 14.8159 48.8911L14.9269 48.4036ZM12.637 48.641L12.4379 48.1824C11.6182 48.5384 10.8974 49.086 10.2751 49.8132L10.6551 50.1383L11.035 50.4633C11.5682 49.8401 12.1687 49.3895 12.8362 49.0996L12.637 48.641ZM10.6551 50.1383L10.983 49.7609L9.76722 48.7045L9.43929 49.0819L9.11135 49.4594L10.3271 50.5157L10.6551 50.1383ZM9.43929 49.0819L9.81384 49.4132C10.6371 48.4822 11.5053 47.8609 12.4145 47.5216L12.2397 47.0531L12.0649 46.5847C10.9715 46.9927 9.97274 47.7239 9.06473 48.7507L9.43929 49.0819ZM12.2397 47.0531L12.4162 47.521C13.3447 47.1707 14.267 47.1046 15.1951 47.316L15.3062 46.8285L15.4172 46.3409C14.2913 46.0845 13.1692 46.1682 12.0633 46.5853L12.2397 47.0531ZM15.3062 46.8285L15.1951 47.316C16.0108 47.5017 16.6711 47.8282 17.193 48.284L17.5219 47.9074L17.8508 47.5308C17.1865 46.9507 16.3696 46.5578 15.4172 46.3409L15.3062 46.8285ZM17.5219 47.9074L17.2017 48.2914C17.7622 48.7589 18.2949 49.3849 18.7954 50.1805L19.2186 49.9143L19.6418 49.6481C19.0982 48.7837 18.4997 48.0718 17.8421 47.5234L17.5219 47.9074ZM19.2186 49.9143L18.8023 50.1913C19.2263 50.8284 19.669 51.366 20.1328 51.797L20.4732 51.4307L20.8135 51.0644C20.4196 50.6984 20.0259 50.225 19.6349 49.6373L19.2186 49.9143ZM20.4732 51.4307L20.1328 51.797C20.6394 52.2677 21.2903 52.5809 22.0585 52.7558L22.1696 52.2683L22.2806 51.7808C21.6447 51.636 21.1647 51.3908 20.8135 51.0644L20.4732 51.4307ZM22.1696 52.2683L22.0585 52.7558C22.9327 52.9549 23.7966 52.8685 24.6347 52.5046L24.4355 52.0459L24.2363 51.5873C23.5872 51.8692 22.9404 51.9311 22.2806 51.7808L22.1696 52.2683ZM24.4355 52.0459L24.6363 52.5039C25.4697 52.1385 26.1983 51.5869 26.8213 50.8587L26.4414 50.5336L26.0615 50.2086C25.5292 50.8308 24.9205 51.2874 24.2348 51.588L24.4355 52.0459ZM26.4414 50.5336L26.1135 50.911L27.3293 51.9674L27.6572 51.59L27.9851 51.2125L26.7693 50.1562L26.4414 50.5336ZM27.6572 51.59L27.2826 51.2587C26.4601 52.1889 25.5835 52.8163 24.6564 53.166L24.8328 53.6338L25.0093 54.1016C26.1167 53.684 27.123 52.9488 28.0318 51.9212L27.6572 51.59ZM24.8328 53.6338L24.658 53.1654C23.7467 53.5055 22.8318 53.5678 21.9014 53.3559L21.7903 53.8434L21.6793 54.331C22.8029 54.5869 23.9164 54.5095 25.0076 54.1023L24.8328 53.6338ZM21.7903 53.8434L21.9014 53.3559C21.0974 53.1728 20.4316 52.8513 19.8904 52.4L19.5702 52.784L19.2499 53.168C19.9269 53.7325 20.7412 54.1173 21.6793 54.331L21.7903 53.8434ZM19.5702 52.784L19.8961 52.4048C19.3353 51.9228 18.8024 51.2883 18.3011 50.4914L17.8779 50.7576L17.4546 51.0238C17.9975 51.8869 18.5928 52.6033 19.2443 53.1632L19.5702 52.784Z" fill="white" mask="url(#path-6-outside-1_26_11)"/>
</svg>
