<svg width="110" height="83" viewBox="0 0 110 83" fill="none" xmlns="http://www.w3.org/2000/svg">
<rect width="39.5911" height="16.0793" transform="matrix(0.996747 0.0805892 -0.0761325 0.997098 69.6263 0.679382)" fill="#736363"/>
<rect width="22.362" height="49.2915" transform="matrix(0.996583 0.0825919 -0.0780258 0.996951 61.8758 6.57343)" fill="#9D887E"/>
<rect width="22.5106" height="3.24749" transform="matrix(0.995884 0.0906369 -0.0856325 0.996327 61.5345 65.7369)" fill="#9D887E"/>
<rect x="58.0297" y="62.4471" width="28.7456" height="6.57338" fill="#9D887E"/>
<rect x="58.0297" y="16.4335" width="28.7456" height="49.3004" fill="#9D887E"/>
<ellipse cx="25.3279" cy="11.371" rx="25.3279" ry="11.371" transform="matrix(0.999772 -0.0213727 0.0201842 0.999796 6.92639 60.2432)" fill="#736363"/>
<path d="M32.4781 34.7147L46.2041 32.867L51.0113 70.6811C51.3595 73.4205 49.4232 75.9399 46.6865 76.3083L42.8711 76.8219C40.1343 77.1903 37.6335 75.2682 37.2852 72.5289L32.4781 34.7147Z" fill="#B39C91"/>
<path d="M32.4781 34.7147L46.2041 32.867L51.0113 70.6811C51.3595 73.4205 49.4232 75.9399 46.6865 76.3083L42.8711 76.8219C40.1343 77.1903 37.6335 75.2682 37.2852 72.5289L32.4781 34.7147Z" fill="url(#paint0_linear_11_107)" fill-opacity="0.5"/>
<rect width="71.9685" height="49.0362" rx="1" transform="matrix(0.99885 -0.0479532 0.045291 0.998974 0.538452 3.45111)" fill="#7D6E67"/>
<rect width="65.6056" height="42.7114" rx="1" transform="matrix(0.998711 -0.0507668 0.0479492 0.99885 3.73242 6.61737)" fill="#F1DBC0"/>
<path d="M83.5814 8.23066L108.96 3.28674L109.133 31.2097L83.7549 36.1537L83.5814 8.23066Z" fill="#F1DBC0"/>
<path d="M83.5814 27.7369L109.133 23.0069L109.308 49.7219L83.756 54.4519L83.5814 27.7369Z" fill="#F1DBC0"/>
<path d="M83.5814 44.1704L109.133 39.4404L109.308 66.1554L83.756 70.8854L83.5814 44.1704Z" fill="#F1DBC0"/>
<ellipse cx="88.3724" cy="11.5035" rx="1.59698" ry="1.64335" fill="#362317"/>
<ellipse cx="88.3724" cy="18.0768" rx="1.59698" ry="1.64335" fill="#362317"/>
<ellipse cx="88.3724" cy="24.6502" rx="1.59698" ry="1.64335" fill="#362317"/>
<path d="M86.7228 58.8358L105.887 55.5496" stroke="#362317" stroke-width="0.2"/>
<path d="M86.7228 65.4092L105.887 62.123" stroke="#362317" stroke-width="0.2"/>
<path d="M86.7228 62.1225L105.887 58.8363" stroke="#362317" stroke-width="0.2"/>
<path d="M86.7228 65.4092L105.887 62.123" stroke="black" stroke-width="0.2"/>
<defs>
<linearGradient id="paint0_linear_11_107" x1="39.3411" y1="33.7909" x2="45.0934" y2="76.5227" gradientUnits="userSpaceOnUse">
<stop offset="0.427885" stop-color="#4A3E3E"/>
<stop offset="0.769231" stop-opacity="0.1"/>
</linearGradient>
</defs>
</svg>
