<svg width="405" height="412" viewBox="0 0 405 412" fill="none" xmlns="http://www.w3.org/2000/svg">
<path d="M91.9414 59.6561C92.2061 58.0205 93.7466 56.9092 95.3821 57.1739L287.878 88.3237C289.514 88.5884 290.625 90.1289 290.36 91.7645L244.035 378.04L45.616 345.932L91.9414 59.6561Z" fill="#DCD8C8"/>
<path d="M94.1427 62.9644C94.4074 61.3288 95.9478 60.2175 97.5834 60.4822L284.466 90.7236C286.101 90.9883 287.213 92.5288 286.948 94.1643L241.947 372.257L49.1414 341.057L94.1427 62.9644Z" fill="white"/>
<path d="M116.296 48.9117C116.302 47.2548 117.651 45.9168 119.307 45.9231L314.306 46.6659C315.963 46.6722 317.301 48.0205 317.295 49.6773L316.19 339.675L115.191 338.91L116.296 48.9117Z" fill="#DCD8C8"/>
<path d="M118.986 51.8361C118.993 50.1793 120.341 48.8413 121.998 48.8476L311.31 49.5687C312.967 49.575 314.305 50.9232 314.298 52.5801L313.225 334.289L117.913 333.545L118.986 51.8361Z" fill="white"/>
<path d="M160.313 36.3455C160.577 34.71 162.118 33.5986 163.753 33.8633L356.249 65.0132C357.885 65.2778 358.996 66.8183 358.731 68.4539L312.406 354.73L113.987 322.622L160.313 36.3455Z" fill="#DCD8C8"/>
<path d="M162.514 39.6538C162.778 38.0183 164.319 36.9069 165.955 37.1716L352.837 67.4131C354.472 67.6777 355.584 69.2182 355.319 70.8538L310.318 348.947L117.513 317.747L162.514 39.6538Z" fill="white"/>
</svg>
