<svg width="60" height="60" viewBox="0 0 60 60" fill="none" xmlns="http://www.w3.org/2000/svg">
<rect width="60" height="60" rx="10" fill="#93827A"/>
<path d="M14.544 48V22.56H21.696V48H14.544ZM18.144 19.776C17.088 19.776 16.208 19.44 15.504 18.768C14.832 18.096 14.496 17.216 14.496 16.128C14.496 15.008 14.832 14.144 15.504 13.536C16.208 12.896 17.088 12.576 18.144 12.576C19.168 12.576 20.032 12.896 20.736 13.536C21.44 14.144 21.792 15.008 21.792 16.128C21.792 17.216 21.44 18.096 20.736 18.768C20.032 19.44 19.168 19.776 18.144 19.776ZM42.6664 48V33.408C42.6664 31.712 42.2504 30.432 41.4184 29.568C40.6184 28.672 39.5784 28.224 38.2984 28.224C37.0184 28.224 35.9624 28.672 35.1304 29.568C34.3304 30.432 33.9304 31.712 33.9304 33.408H32.6824C32.6824 30.944 33.0344 28.864 33.7384 27.168C34.4424 25.44 35.4344 24.128 36.7144 23.232C38.0264 22.336 39.5624 21.888 41.3224 21.888C42.9864 21.888 44.4584 22.288 45.7384 23.088C47.0184 23.888 48.0104 25.04 48.7144 26.544C49.4504 28.048 49.8184 29.856 49.8184 31.968V48H42.6664ZM26.7784 48V22.56H33.9304V48H26.7784Z" fill="white"/>
</svg>
